<svg xmlns="http://www.w3.org/2000/svg" viewBox="0 0 458.37 103.68"><defs><style>.cls-1{fill:#0084ca;}</style></defs><g id="Camada_2" data-name="Camada 2"><g id="Camada_1-2" data-name="Camada 1"><path class="cls-1" d="M40.68,39.87c-13,0-21,7.09-21,22V86H0V21.36H19.63V35.1c4-8.6,10.46-14.18,22.09-13.71V39.87Z"/><path class="cls-1" d="M106.68,59.86H58.5c1.94,8,8.14,12.2,16.92,12.2,6.59,0,11.37-1.86,16.79-6.39l11.24,9C97,81.83,87.69,86.24,75.16,86.24,54.37,86.24,39,73.11,39,54.05v-.23C39,36,53.08,21.39,73.23,21.39c23.12,0,33.71,16.15,33.71,33.82v.23C106.94,57.19,106.81,58.23,106.68,59.86ZM73.23,35.57c-8.14,0-13.43,5.23-15,13.25H87.82C86.66,40.91,81.49,35.57,73.23,35.57Z"/><path class="cls-1" d="M142.84,103.68a71.73,71.73,0,0,1-30.61-6.51l6.71-13.25a49.12,49.12,0,0,0,23.38,5.69c13.43,0,19.76-5.81,19.76-17v-3c-5.81,6.28-12.14,10.11-22.6,10.11-16.15,0-30.74-10.57-30.74-29.05v-.24c0-18.59,14.85-29,30.74-29,10.72,0,17.05,4.06,22.34,9.3V22.55h19.63V70.78C181.45,94.26,168.54,103.68,142.84,103.68Zm19.24-53.24C162.08,42,154.72,36,145.16,36S128.37,42,128.37,50.44v.24c0,8.6,7.23,14.41,16.79,14.41s16.92-5.93,16.92-14.41Z"/><path class="cls-1" d="M189.71,15.69V0h20.67V15.69Zm.52,68V21.36h19.63v62.3Z"/><path class="cls-1" d="M242.92,86a52.05,52.05,0,0,1-29.7-9.41L221.61,65c7.49,4.88,15.37,7.44,21.83,7.44,5.68,0,8.26-1.86,8.26-4.65v-.23c0-3.84-6.71-5.11-14.33-7.21-9.69-2.55-20.67-6.62-20.67-18.71v-.23c0-12.67,11.37-19.76,25.32-19.76a51.68,51.68,0,0,1,25.83,7.21L260.36,41c-6.85-3.6-13.69-5.81-18.73-5.81-4.78,0-7.23,1.86-7.23,4.3v.23c0,3.49,6.58,5.11,14.07,7.44,9.69,2.91,20.93,7.09,20.93,18.48v.23C269.4,79.73,257.9,86,242.92,86Z"/><path class="cls-1" d="M388.43,39.17c-13,0-21.05,7.09-21.05,22v23H347.75V21.36h19.63v13c4-8.6,10.46-14.18,22.08-13.71V39.17Z"/><path class="cls-1" d="M424.08,84.05c-19.55,0-34-13.82-34-31.12V52.7c0-17.3,14.61-31.34,34.28-31.34s34.05,13.82,34.05,31.12v.22C458.37,70,443.76,84.05,424.08,84.05ZM440.7,52.7a16.36,16.36,0,0,0-16.62-16.62c-10.24,0-16.37,7.52-16.37,16.4v.22a16.36,16.36,0,0,0,16.61,16.63c10.25,0,16.38-7.53,16.38-16.4Z"/><path class="cls-1" d="M299.67,34.66a1.35,1.35,0,0,0-.14.37c-.24,1.28-1.17,21.28-1.17,21.28a4,4,0,0,0-2.3,1.91,5.21,5.21,0,0,0-.62,2.74c0,.15-.21,3.64-.15,4.05a.73.73,0,0,0,.09.23.49.49,0,0,0,.35.17,1.47,1.47,0,0,1,.66.47,2.14,2.14,0,0,1,.31,1.56s-4,.74-4.79,2.56a16.17,16.17,0,0,0-1,3.82l-.57,6.79h15.91c5.3,0,10.47-.21,15.77-.21-.19-2.26-.24-4.32-.43-6.58a15.63,15.63,0,0,0-1-3.82c-.79-1.82-4.79-2.56-4.79-2.56a2.14,2.14,0,0,1,.31-1.56,1.46,1.46,0,0,1,.67-.47.49.49,0,0,0,.34-.17.73.73,0,0,0,.09-.23c.07-.41-.14-3.9-.15-4.05a5.21,5.21,0,0,0-.62-2.74,4,4,0,0,0-2.29-1.91s-.94-20-1.18-21.28a1.24,1.24,0,0,0-.1-.29"/><path class="cls-1" d="M322,80.17c0,4-7.09,7.25-15.83,7.25s-15.84-3.24-15.84-7.25"/><path class="cls-1" d="M312.81,40.94a2.13,2.13,0,0,0-.16-.25l0-11.83a108,108,0,0,0,13.56-3.16s4-1.22,18.12-6.7c0,0,6.39-12.95-6.94-16.7A108,108,0,0,1,324,6,106.13,106.13,0,0,1,306.16,8.1,106.25,106.25,0,0,1,288.31,6,107.8,107.8,0,0,1,275,2.3C261.66,6.05,268,19,268,19c14.08,5.48,18.12,6.7,18.12,6.7a108.39,108.39,0,0,0,13.56,3.16q0,6-.05,12"/><rect class="cls-1" x="296.61" y="25.06" width="19.34" height="15.88" rx="2.69"/><rect class="cls-1" x="297.39" y="43.74" width="17.79" height="17.14" rx="2.68"/></g></g></svg>